<svg viewBox="0 0 512 512" xmlns="http://www.w3.org/2000/svg"><path d="m391.5 241.835938v-98.300782c0-3.980468-1.578125-7.796875-4.394531-10.605468l-128.53125-128.535157c-2.8125-2.8125-6.628907-4.394531-10.605469-4.394531h-232.96875c-8.285156 0-15 6.714844-15 15v482c0 8.285156 6.714844 15 15 15h361.5c74.714844 0 135.5-60.785156 135.5-135.5 0-69.644531-52.816406-127.175781-120.5-134.664062zm-128.53125-190.621094 77.316406 77.316406h-77.316406zm-232.96875 430.785156v-452h202.96875v113.53125c0 8.285156 6.714844 15 15 15h113.53125v83.304688c-67.683594 7.488281-120.5 65.019531-120.5 134.664062 0 42.585938 19.753906 80.640625 50.574219 105.5zm346.5 0c-58.171875 0-105.5-47.328125-105.5-105.5s47.328125-105.5 105.5-105.5 105.5 47.328125 105.5 105.5-47.328125 105.5-105.5 105.5zm0 0"/><path d="m416.667969 361.5h-25.167969v-25.167969c0-8.28125-6.714844-15-15-15s-15 6.71875-15 15v25.167969h-25.164062c-8.285157 0-15 6.714844-15 15s6.714843 15 15 15h25.164062v25.167969c0 8.28125 6.714844 15 15 15s15-6.71875 15-15v-25.167969h25.167969c8.285156 0 15-6.714844 15-15s-6.714844-15-15-15zm0 0"/></svg>